{"title":"Formula 1 Abu Dhabi 2011 Complete (Deejay1210)","uid":6823652,"size":3360729266,"categoryP":"video","categoryS":"tv_shows","magnet":"?xt=urn:btih:eec1474157f57e40a6a6176bbc1e111d9805d623&amp;dn=Formula+1+Abu+Dhabi+2011+Complete+%28Deejay1210%29&amp;tr=udp%3A%2F%2Ftracker.openbittorrent.com%3A80&amp;tr=udp%3A%2F%2Fopen.demonii.com%3A1337&amp;tr=udp%3A%2F%2Ftracker.coppersurfer.tk%3A6969&amp;tr=udp%3A%2F%2Fexodus.desync.com%3A6969","seeders":0,"leechers":1,"uploader":"JAYBEE123","files":5,"time":1321486908,"description":"The ENTIRE F1 Abu Dhabi Grand Prix from Practice,Qualifying,Race and Forum.\n\nBBC Content.\n\n\n\n\nFormat                                   : MPEG-4\nFormat profile                           : Base Media\nCodec ID                                 : isom\nFile size                                : 974 MiB\nDuration                                 : 2h 50mn\nOverall bit rate                         : 799 Kbps\nMovie name                               : 2011: The Abu Dhabi Grand Prix\nAlbum                                    : Formula 1\nAlbum/Performer                          : BBC TV\nGrouping                                 : Sport,Motorsport,Formula One\nPerformer                                : BBC One\nComposer                                 : BBC iPlayer\nGenre                                    : Sport\nRecorded date                            : UTC 2011-11-13 12:15:00\nTagged date                              : UTC 2011-11-16 21:35:06\nWriting application                      : Lavf53.4.0\nCopyright                                : Ã‚Â© 2011 British Broadcasting Corporation, all rights reserved\nCover                                    : Yes\nComment                                  : Coverage of the Abu Dhabi Grand Prix, the penultimate race of the 2011 season.\nstik                                     : 10\nÃ‚Â©lyr                                     : Jake Humphrey introduces live coverage of the Abu Dhabi Grand Prix, the penultimate race of the 2011 season and the only day-night race on the Formula 1 calendar. Sebastian Vettel may have already sealed a second successive drivers' championship, but the German will be in no mood to let up at Yas Marina. The spectacular track, which cost 800 million pounds to construct, was the scene for Vettel's dramatic title win last year, when the German claimed maximum points to leapfrog Fernando Alonso in the standings. Vettel also won in Abu Dhabi in 2009, so will be looking to make it a hat-trick of wins. /  / EPISODE /  &lt;a href=&quot; http://www.bbc.co.uk/iplayer/episode/b01772nq/Formula_1_2011_The_Abu_Dhabi_Grand_Prix/&quot; rel=&quot;nofollow&quot; target=&quot;_NEW&quot;&gt; http://www.bbc.co.uk/iplayer/episode/b01772nq/Formula_1_2011_The_Abu_Dhabi_Grand_Prix/&lt;/a&gt; /  / SERIES /  &lt;a href=&quot; http://www.bbc.co.uk/programmes/b01772nq.html&quot; rel=&quot;nofollow&quot; target=&quot;_NEW&quot;&gt; http://www.bbc.co.uk/programmes/b01772nq.html&lt;/a&gt;\ndesc                                     : Coverage of the Abu Dhabi Grand Prix, the penultimate race of the 2011 season.\ntvsh                                     : Formula 1\ntven                                     : b01772nq\ntvnn                                     : BBC One\n\nVideo\nID                                       : 1\nFormat                                   : AVC\nFormat/Info                              : Advanced Video Codec\nFormat profile                           : &lt;a class=&quot;__cf_email__&quot; href=&quot;/cdn-cgi/l/email-protection&quot; data-cfemail=&quot;9cd1fdf5f2dcd0afb2ac&quot;&gt;[email&amp;#160;protected]&lt;/a&gt;&lt;script cf-hash='f9e31' type=&quot;text/javascript&quot;&gt;\n/* &lt;![CDATA[ */!function(){try{var t=&quot;currentScript&quot;in document?document.currentScript:function(){for(var t=document.getElementsByTagName(&quot;script&quot;),e=t.length;e--;)if(t[e].getAttribute(&quot;cf-hash&quot;))return t[e]}();if(t&amp;&amp;t.previousSibling){var e,r,n,i,c=t.previousSibling,a=c.getAttribute(&quot;data-cfemail&quot;);if(a){for(e=&quot;&quot;,r=parseInt(a.substr(0,2),16),n=2;a.length-n;n+=2)i=parseInt(a.substr(n,2),16)^r,e+=String.fromCharCode(i);e=document.createTextNode(e),c.parentNode.replaceChild(e,c)}}}catch(u){}}();/* ]]&gt; */&lt;/script&gt;\nFormat settings, CABAC                   : Yes\nFormat settings, ReFrames                : 4 frames\nCodec ID                                 : avc1\nCodec ID/Info                            : Advanced Video Coding\nDuration                                 : 2h 50mn\nBit rate mode                            : Constant\nBit rate                                 : 700 Kbps\nWidth                                    : 640 pixels\nHeight                                   : 360 pixels\nDisplay aspect ratio                     : 16:9\nFrame rate mode                          : Constant\nFrame rate                               : 25.000 fps\nStandard                                 : PAL\nColor space                              : YUV\nChroma subsampling                       : 4:2:0\nBit depth                                : 8 bits\nScan type                                : Progressive\nBits/(Pixel*Frame)                       : 0.122\nStream size                              : 852 MiB (87%)\n\nAudio\nID                                       : 2\nFormat                                   : AAC\nFormat/Info                              : Advanced Audio Codec\nFormat profile                           : HE-AAC / LC\nCodec ID                                 : 40\nDuration                                 : 2h 50mn\nBit rate mode                            : Constant\nBit rate                                 : 96.0 Kbps\nChannel(s)                               : 2 channels\nChannel positions                        : Front: L R\nSampling rate                            : 48.0 KHz / 24.0 KHz\nCompression mode                         : Lossy\nStream size                              : 116 MiB (12%)\n\n","torrent":{"xt":"urn:btih:eec1474157f57e40a6a6176bbc1e111d9805d623","amp;dn":"Formula+1+Abu+Dhabi+2011+Complete+%28Deejay1210%29","amp;tr":["udp%3A%2F%2Ftracker.openbittorrent.com%3A80","udp%3A%2F%2Fopen.demonii.com%3A1337","udp%3A%2F%2Ftracker.coppersurfer.tk%3A6969","udp%3A%2F%2Fexodus.desync.com%3A6969"],"infoHash":"eec1474157f57e40a6a6176bbc1e111d9805d623","infoHashBuffer":{"type":"Buffer","data":[238,193,71,65,87,245,126,64,166,166,23,107,188,30,17,29,152,5,214,35]},"announce":[],"urlList":[]}}